<svg width="448" height="512" viewBox="0 0 448 512" fill="none" xmlns="http://www.w3.org/2000/svg">
<path d="M246.6 9.3999C234.1 -3.1001 213.8 -3.1001 201.3 9.3999L73.3 137.4C60.8 149.9 60.8 170.2 73.3 182.7C85.8 195.2 106.1 195.2 118.6 182.7L192 109.3V320C192 337.7 206.3 352 224 352C241.7 352 256 337.7 256 320V109.3L329.4 182.7C341.9 195.2 362.2 195.2 374.7 182.7C387.2 170.2 387.2 149.9 374.7 137.4L246.7 9.3999H246.6ZM64 352C64 334.3 49.7 320 32 320C14.3 320 0 334.3 0 352V416C0 469 43 512 96 512H352C405 512 448 469 448 416V352C448 334.3 433.7 320 416 320C398.3 320 384 334.3 384 352V416C384 433.7 369.7 448 352 448H96C78.3 448 64 433.7 64 416V352Z" fill="#DDDDDD"/>
</svg>
