<svg width="30" height="30" viewBox="0 0 30 30" fill="none" xmlns="http://www.w3.org/2000/svg">
<g clip-path="url(#clip0_33_2)">
<path d="M30 15C30 23.2852 23.2852 30 15 30C6.71484 30 0 23.2852 0 15C0 6.71484 6.71484 0 15 0C23.2852 0 30 6.71484 30 15ZM9.46289 9.95508C8.74805 9.65039 7.92187 9.97852 7.61719 10.6934C7.3125 11.4082 7.64063 12.2344 8.35547 12.5391L9.05273 12.8379C10.0664 13.2715 11.1152 13.5937 12.1934 13.793V16.7285C12.1934 16.9805 12.1523 17.2324 12.0703 17.4668L10.3887 22.5117C10.1426 23.25 10.541 24.0469 11.2793 24.293C12.0176 24.5391 12.8145 24.1406 13.0605 23.4023L14.4902 19.1133C14.5664 18.8906 14.7715 18.7383 15.0059 18.7383C15.2402 18.7383 15.4512 18.8906 15.5215 19.1133L16.9512 23.4023C17.1973 24.1406 17.9941 24.5391 18.7324 24.293C19.4707 24.0469 19.8691 23.25 19.623 22.5117L17.9414 17.4668C17.8594 17.2266 17.8184 16.9805 17.8184 16.7285V13.7988C18.8965 13.5938 19.9453 13.2773 20.959 12.8437L21.6563 12.5449C22.3711 12.2402 22.6992 11.4141 22.3945 10.6992C22.0898 9.98438 21.2637 9.65625 20.5488 9.96094L19.8457 10.2539C18.3164 10.9102 16.6699 11.25 15 11.25C13.3301 11.25 11.6895 10.9102 10.1543 10.2539L9.45703 9.95508H9.46289ZM15 9.375C16.2949 9.375 17.3438 8.32617 17.3438 7.03125C17.3438 5.73633 16.2949 4.6875 15 4.6875C13.7051 4.6875 12.6562 5.73633 12.6562 7.03125C12.6562 8.32617 13.7051 9.375 15 9.375Z" fill="#AAAAAA"/>
</g>
<defs>
<clipPath id="clip0_33_2">
<rect width="30" height="30" fill="white"/>
</clipPath>
</defs>
</svg>
